<svg width="178" height="76" fill="none" xmlns="http://www.w3.org/2000/svg"><path d="M153.008 21.195c5.822 0 10.542-4.744 10.542-10.597S158.83 0 153.008 0s-10.542 4.745-10.542 10.598c0 5.853 4.72 10.597 10.542 10.597Z" fill="url('#paint0_linear_30_1404')"/><path fill-rule="evenodd" clip-rule="evenodd" d="M16.265 30.884s4.517-5.147 12.951-5.147c12.951 0 21.385 10.295 21.385 25.132C50.6 66.008 40.963 76 28.312 76c-9.939 0-13.252-5.753-13.252-5.753v4.845H0V13.02h16.265l-.302 17.864h.302Zm-.603 20.287c0 5.753 3.012 11.506 9.337 11.506 5.12 0 9.337-4.239 9.337-11.506S30.722 39.363 25 39.363c-4.819 0-9.337 3.33-9.337 11.808Zm78.31-17.259c1.507-2.422 6.326-8.175 15.663-8.175 9.036 0 16.265 4.24 16.265 17.865v31.187h-16.265v-28.16c0-4.541-1.807-6.358-5.421-6.358-6.928 0-10.241 7.57-10.241 14.231v20.59H77.708V26.645h16.265v7.267Zm-37.95 3.33V74.79h15.963V26.645h-5.421c-6.024 0-10.542 4.845-10.542 10.598Zm96.987 24.527 7.831 13.322h16.867l-15.361-24.223 15.361-24.223h-12.349c-2.41 0-4.82 1.212-6.024 3.331l-6.024 9.992h-.301l-5.723-9.69c-1.205-2.421-3.614-3.633-6.024-3.633h-12.951l15.361 24.223-15.361 24.223h16.565l7.831-13.322h.302Z" fill="white"/><defs><linearGradient id="paint0_linear_30_1404" x1="148.791" y1="0" x2="165.453" y2="1.62" gradientUnits="userSpaceOnUse"><stop stop-color="#ACD8D6"/><stop offset="1" stop-color="#78B0CE"/></linearGradient></defs></svg>