<svg version="1.1" id="Layer_1" xmlns="http://www.w3.org/2000/svg" xmlns:xlink="http://www.w3.org/1999/xlink" x="0px" y="0px" viewBox="0 0 140.14 164.54" style="enable-background:new 0 0 140.14 164.54;" xml:space="preserve">
 <style type="text/css">
  .st0{fill:#E30613;}
 </style>
 <g>
  <g>
   <path class="st0" d="M55.19,36.75c-4.13-4.21-6.21-9.28-6.21-15.23c0-5.81,2.08-10.89,6.15-15.11C59.26,2.17,64.27,0,70.07,0
			c5.7,0,10.69,2.13,14.83,6.36c4.16,4.22,6.28,9.35,6.28,15.16c0,5.94-2.08,11.02-6.23,15.23c-4.15,4.23-9.18,6.35-14.89,6.35
			C64.27,43.11,59.26,40.99,55.19,36.75z M140.14,85.36v-13.1c0-12.37-10.04-22.43-22.42-22.43H22.41C10.03,49.84,0,59.9,0,72.27
			v49.3h106.32v7.47H0v13.07c0,12.38,10.03,22.42,22.41,22.42h95.31c12.38,0,22.42-10.04,22.42-22.42V92.83H33.84v-7.47H140.14z">
   </path>
  </g>
 </g>
</svg>