<svg viewBox="0 0 100 100" xmlns="http://www.w3.org/2000/svg" xmlns:xlink="http://www.w3.org/1999/xlink">
  <!-- ERSTE text - scaled and centered from original -->
  <g transform="translate(10, 30) scale(0.17)">
    <path fill="#2371ee" d="m 0.03,59.37 c 0,-5.57 2.48,-8.51 8.21,-8.51 H 64.59 V 61.7 c 0,5.57 -2.94,8.21 -8.82,8.21 H 22.48 V 90.5 h 36.38 v 17.8 H 22.48 v 22.76 h 42.88 v 10.84 c 0,5.57 -2.94,8.05 -8.67,8.05 H 8.23 c -5.73,-0.02 -8.2,-2.96 -8.2,-8.53 z"/>
    <path fill="#2371ee" d="m 74.49,59.21 c 0,-5.42 2.32,-8.36 8.05,-8.36 h 32.67 c 23.22,0 36.23,12.85 36.23,31.89 0,13.78 -6.81,23.84 -19.82,28.49 l 22.91,34.52 c 0.77,1.39 1.39,2.79 1.39,4.18 h -20.13 c -4.18,0 -5.73,-0.31 -8.36,-4.49 L 108.39,114.79 H 96.93 v 35.14 H 74.48 V 59.21 Z M 96.94,69.89 V 95.9 h 16.72 c 9.44,0 15.95,-3.41 15.95,-13.16 0,-9.75 -6.5,-12.85 -15.95,-12.85 z"/>
    <path fill="#2371ee" d="m 191.84,50.08 c 19.97,0 31.43,2.17 31.43,10.99 v 8.52 h -29.26 c -8.67,0 -12.08,2.63 -12.08,7.59 0,13.47 46.6,11.15 46.6,44.28 0,15.79 -9.75,29.26 -38.08,29.26 -17.8,0 -32.51,-2.48 -32.51,-10.99 v -8.52 h 33.6 c 8.82,0 13.16,-2.79 13.16,-8.51 0,-14.55 -46.44,-12.39 -46.44,-46.14 0,-14.86 10.53,-26.47 33.6,-26.47 z"/>
    <path fill="#2371ee" d="M 296.49,50.85 V 62 c 0,5.42 -3.1,7.9 -8.82,7.9 h -14.09 v 80.04 H 251.13 V 69.89 H 228.22 V 58.74 c 0,-5.42 2.94,-7.9 8.67,-7.9 h 59.6 z"/>
    <path fill="#2371ee" d="m 303.61,59.37 c 0,-5.57 2.48,-8.51 8.21,-8.51 h 56.35 V 61.7 c 0,5.57 -2.94,8.21 -8.82,8.21 H 326.06 V 90.5 h 36.38 v 17.8 h -36.38 v 22.76 h 42.88 v 10.84 c 0,5.57 -2.94,8.05 -8.67,8.05 h -48.46 c -5.73,0 -8.21,-2.94 -8.21,-8.51 V 59.37 Z"/>
    <path fill="#2371ee" d="m 397.11,123.39 h 88.43 v -11.87 h -88.26 c -0.07,-1.37 -0.03,-28.14 -0.21,-40.51 -0.15,-10.55 7.05,-20.82 20.66,-20.59 24.8,0.41 49.63,0.41 74.43,-0.02 10.69,-0.19 20.42,7.66 20.41,20.43 0,1.78 -0.01,3.96 -0.01,6.27 h -88.51 v 11.59 l 88.51,-0.02 c 0,1.59 0.03,28.4 0,40.87 -0.04,12.55 -8.08,20.44 -20.78,20.45 -24.6,0 -49.2,0 -73.8,0 -12.8,0 -20.81,-7.98 -20.86,-20.77 0,-1.78 0,-3.56 0,-5.83"/>
    <path fill="#2371ee" d="m 454.94,38.03 c -10.46,0 -18.92,-8.62 -18.86,-19.2 0.05,-10.4 8.55,-18.85 18.93,-18.83 10.37,0.02 18.85,8.51 18.87,18.9 0.02,10.56 -8.47,19.14 -18.94,19.13"/>
  </g>
</svg>
