<?xml version="1.0" encoding="UTF-8" standalone="no"?>
<!-- Created with Inkscape (http://www.inkscape.org/) -->

<svg
   version="1.1"
   id="svg2"
   width="326.85333"
   height="120.94667"
   viewBox="0 0 326.85333 120.94667"
   sodipodi:docname="Granit_Bank_logo_horizontal_S.eps"
   xmlns:inkscape="http://www.inkscape.org/namespaces/inkscape"
   xmlns:sodipodi="http://sodipodi.sourceforge.net/DTD/sodipodi-0.dtd"
   xmlns="http://www.w3.org/2000/svg"
   xmlns:svg="http://www.w3.org/2000/svg">
  <defs
     id="defs6" />
  <sodipodi:namedview
     id="namedview4"
     pagecolor="#ffffff"
     bordercolor="#000000"
     borderopacity="0.25"
     inkscape:showpageshadow="2"
     inkscape:pageopacity="0.0"
     inkscape:pagecheckerboard="0"
     inkscape:deskcolor="#d1d1d1" />
  <g
     id="g8"
     inkscape:groupmode="layer"
     inkscape:label="ink_ext_XXXXXX"
     transform="matrix(1.3333333,0,0,-1.3333333,0,120.94667)">
    <g
       id="g10"
       transform="scale(0.1)">
      <path
         d="m 283.465,907.086 h 340.156 c 137.426,0 252.805,-99.113 278.234,-229.387 L 619.496,536.523 c 2.688,9.68 4.125,19.872 4.125,30.407 0,62.621 -50.766,113.386 -113.383,113.386 H 283.465 V 226.773 L 566.93,226.77 c 44.386,0 82.808,25.515 101.422,62.675 L 453.543,396.852 v 56.691 H 907.086 V 283.465 C 907.086,127.559 779.527,0 623.621,0 H 283.465 C 127.559,0 0,127.559 0,283.465 V 623.621 C 0,779.527 127.559,907.086 283.465,907.086 Z M 1561.73,743.016 c -31.59,0 -56.81,-14.086 -64.12,-34.645 v 28.637 c -24.12,0 -48.24,0 -72.36,0 V 510.234 h 72.36 v 123.395 c 0,29.184 16.55,41.492 36.57,41.492 21.71,0 34.35,-7.449 40.65,-10.437 l 32.65,65.304 c -12.88,8.489 -28.58,13.028 -45.75,13.028 z m 475.97,0 c -31.58,0 -56.96,-14.086 -64.27,-34.645 v 28.637 c -24.12,0 -48.24,0 -72.36,0 V 510.234 h 72.36 v 123.395 c 0,29.184 16.55,41.492 36.56,41.492 22.33,0 35.8,-14.738 35.8,-41.492 V 510.234 h 72.35 v 148.723 c 0,52.422 -35.1,84.059 -80.44,84.059 z m 400.09,-6.082 h -64.04 v 72.359 h -72.36 c 0,-96.539 0,-114.051 0,-211.996 0,-56.801 27.48,-93.063 88.29,-93.063 26.07,0 45.21,5 61.68,13.422 l -28.46,56.93 c -4.75,-1.625 -11.51,-2.918 -17.05,-2.918 -18.25,0 -32.1,8.773 -32.1,34.867 v 66.352 h 64.04 v 64.047 z m -230.75,115.773 c -24.48,0 -43.19,-18.934 -43.19,-43.414 0,-24.246 18.71,-42.949 43.19,-42.949 24.25,0 43.18,18.703 43.18,42.949 0,24.48 -18.93,43.414 -43.18,43.414 z m 36.18,-115.699 h -72.36 V 510.234 h 72.36 v 226.774 z m -589.97,72.285 114.61,57.305 25.5,-51.016 -114.61,-57.305 -25.5,51.016 z M 1240.42,343.738 c 27.94,0 41.64,-8.078 41.64,-31.711 0,-24.093 -13.74,-32.175 -41.41,-32.175 h -57.99 v 63.886 h 57.76 z m 6.24,-128.39 c 29.47,0 49.96,-9.008 49.96,-32.637 0,-24.25 -18.35,-33.023 -48.04,-33.023 h -65.92 v 65.66 h 64 z M 1105.53,408.711 V 85.0234 h 144.82 c 81.83,0 126.02,31.6486 126.02,92.6056 0,33.098 -26.4,66.246 -54.59,72.746 26.25,11.543 40.64,34.789 40.64,66.734 0,59.508 -38.21,91.602 -119.92,91.602 h -136.97 z m 602.8,334.305 c 34.81,0 55.86,-16.782 62.89,-34.575 v 28.575 h 72.36 V 510.234 h -72.36 v 28.575 c -7.03,-17.793 -28.08,-34.575 -62.89,-34.575 -67.27,0 -105.3,58.989 -105.3,119.391 0,60.402 38.03,119.391 105.3,119.391 z m 17.32,-171.348 c 28.48,0 48.58,21.937 48.58,51.957 0,30.023 -20.1,51.965 -48.58,51.965 -28.86,0 -48.26,-22.406 -48.26,-51.965 0,-29.559 19.4,-51.957 48.26,-51.957 z m 402.61,-367.258 62.52,107.387 h -84.25 l -37.68,-75.363 h -23.06 v 181.125 h -72.36 V 85.0234 h 72.36 v 87.3746 h 23.06 l 43.68,-87.3746 h 85.24 L 2128.26,204.41 Z M 1840.2,317.805 c -31.59,0 -56.97,-14.09 -64.27,-34.645 v 28.637 c -24.12,0 -48.24,0 -72.36,0 V 85.0234 h 72.36 V 208.418 c 0,29.176 16.54,41.488 36.56,41.488 22.32,0 35.79,-14.73 35.79,-41.488 V 85.0234 h 72.36 V 233.742 c 0,52.426 -35.1,84.063 -80.44,84.063 z M 1528.15,146.453 c 28.48,0 48.57,21.938 48.57,51.957 0,30.028 -20.09,51.965 -48.57,51.965 -28.87,0 -48.27,-22.402 -48.27,-51.965 0,-29.558 19.4,-51.957 48.27,-51.957 z m -17.32,171.352 c 34.81,0 55.85,-16.782 62.88,-34.578 v 28.574 h 72.36 V 85.0234 h -72.36 v 28.5746 c -7.03,-17.7933 -28.07,-34.5746 -62.88,-34.5746 -67.28,0 -105.31,58.9846 -105.31,119.3866 0,60.406 38.03,119.395 105.31,119.395 z m -257.3,521.738 c -100.69,0 -176.36,-69.516 -176.36,-167.43 0,-100.758 79.37,-167.343 175.66,-167.343 47.3,0 97.34,19.695 126.75,55.687 v 132.602 h -129.75 v -59.43 h 57.39 v -45.68 c -13.17,-8.355 -36,-12.668 -57.16,-12.668 -48.03,0 -93.46,34.793 -93.46,96.832 0,56.2 41.51,94.918 93.23,94.918 23.87,0 58.24,-9.664 79.28,-30.183 l 33.49,66.972 c -26.9,20.832 -66.58,35.723 -109.07,35.723 v 0"
         style="fill:#5e59b1;fill-opacity:1;fill-rule:evenodd;stroke:none"
         id="path12" />
    </g>
  </g>
</svg>
