<svg xmlns="http://www.w3.org/2000/svg" xmlns:xlink="http://www.w3.org/1999/xlink" version="1.1" width="256" height="256" viewBox="0 0 256 256" xml:space="preserve">

<defs>
</defs>
<g style="stroke: none; stroke-width: 0; stroke-dasharray: none; stroke-linecap: butt; stroke-linejoin: miter; stroke-miterlimit: 10; fill: none; fill-rule: nonzero; opacity: 1;" transform="translate(1.4065934065934016 1.4065934065934016) scale(2.81 2.81)" >
	<rect x="35.72" y="6.95" rx="0" ry="0" width="18.55" height="10.16" style="stroke: none; stroke-width: 1; stroke-dasharray: none; stroke-linecap: butt; stroke-linejoin: miter; stroke-miterlimit: 10; fill: rgb(188,187,191); fill-rule: nonzero; opacity: 1;" transform=" matrix(1 0 0 1 0 0) "/>
	<path d="M 50 0 H 40 c -2.361 0 -4.276 1.914 -4.276 4.276 v 3.682 h 18.552 V 4.276 C 54.276 1.914 52.362 0 50 0 z" style="stroke: none; stroke-width: 1; stroke-dasharray: none; stroke-linecap: butt; stroke-linejoin: miter; stroke-miterlimit: 10; fill: rgb(203,202,207); fill-rule: nonzero; opacity: 1;" transform=" matrix(1 0 0 1 0 0) " stroke-linecap="round" />
	<path d="M 65.063 39.883 c 1.033 2.527 1.614 5.286 1.614 8.185 c 0 11.972 -9.705 21.677 -21.677 21.677 S 23.323 60.04 23.323 48.068 c 0 -2.899 0.581 -5.658 1.614 -8.185 C 38.312 35.838 51.688 35.838 65.063 39.883 z" style="stroke: none; stroke-width: 1; stroke-dasharray: none; stroke-linecap: butt; stroke-linejoin: miter; stroke-miterlimit: 10; fill: rgb(254,216,101); fill-rule: nonzero; opacity: 1;" transform=" matrix(1 0 0 1 0 0) " stroke-linecap="round" />
	<path d="M 24.937 39.883 c 0.479 -1.17 1.045 -2.296 1.712 -3.353 c 3.598 -5.705 5.954 -12.086 6.593 -18.744 c 0.102 -1.062 0.995 -1.87 2.062 -1.87 H 45 h 9.696 c 1.067 0 1.96 0.808 2.062 1.87 c 0.639 6.658 2.994 13.039 6.593 18.744 c 0.667 1.058 1.234 2.183 1.712 3.353 H 24.937 z" style="stroke: none; stroke-width: 1; stroke-dasharray: none; stroke-linecap: butt; stroke-linejoin: miter; stroke-miterlimit: 10; fill: rgb(203,202,207); fill-rule: nonzero; opacity: 1;" transform=" matrix(1 0 0 1 0 0) " stroke-linecap="round" />
	<path d="M 13.712 50.415 H 5.415 c -0.558 0 -1.011 -0.452 -1.011 -1.011 s 0.453 -1.011 1.011 -1.011 h 8.298 c 0.558 0 1.011 0.452 1.011 1.011 S 14.271 50.415 13.712 50.415 z" style="stroke: none; stroke-width: 1; stroke-dasharray: none; stroke-linecap: butt; stroke-linejoin: miter; stroke-miterlimit: 10; fill: rgb(254,216,101); fill-rule: nonzero; opacity: 1;" transform=" matrix(1 0 0 1 0 0) " stroke-linecap="round" />
	<path d="M 84.585 50.415 h -8.298 c -0.559 0 -1.011 -0.452 -1.011 -1.011 s 0.452 -1.011 1.011 -1.011 h 8.298 c 0.559 0 1.011 0.452 1.011 1.011 S 85.144 50.415 84.585 50.415 z" style="stroke: none; stroke-width: 1; stroke-dasharray: none; stroke-linecap: butt; stroke-linejoin: miter; stroke-miterlimit: 10; fill: rgb(254,216,101); fill-rule: nonzero; opacity: 1;" transform=" matrix(1 0 0 1 0 0) " stroke-linecap="round" />
	<path d="M 45 90 c -0.558 0 -1.011 -0.452 -1.011 -1.011 v -8.298 c 0 -0.559 0.453 -1.011 1.011 -1.011 s 1.011 0.452 1.011 1.011 v 8.298 C 46.011 89.548 45.558 90 45 90 z" style="stroke: none; stroke-width: 1; stroke-dasharray: none; stroke-linecap: butt; stroke-linejoin: miter; stroke-miterlimit: 10; fill: rgb(254,216,101); fill-rule: nonzero; opacity: 1;" transform=" matrix(1 0 0 1 0 0) " stroke-linecap="round" />
	<path d="M 72.991 78.405 c -0.259 0 -0.517 -0.099 -0.715 -0.296 l -5.867 -5.867 c -0.395 -0.395 -0.395 -1.035 0 -1.43 c 0.395 -0.395 1.035 -0.395 1.43 0 l 5.867 5.867 c 0.395 0.395 0.395 1.035 0 1.43 C 73.508 78.307 73.249 78.405 72.991 78.405 z" style="stroke: none; stroke-width: 1; stroke-dasharray: none; stroke-linecap: butt; stroke-linejoin: miter; stroke-miterlimit: 10; fill: rgb(254,216,101); fill-rule: nonzero; opacity: 1;" transform=" matrix(1 0 0 1 0 0) " stroke-linecap="round" />
	<path d="M 17.009 78.405 c -0.259 0 -0.517 -0.099 -0.715 -0.296 c -0.395 -0.395 -0.395 -1.035 0 -1.43 l 5.867 -5.867 c 0.395 -0.395 1.035 -0.395 1.43 0 c 0.395 0.395 0.395 1.035 0 1.43 l -5.867 5.867 C 17.526 78.307 17.268 78.405 17.009 78.405 z" style="stroke: none; stroke-width: 1; stroke-dasharray: none; stroke-linecap: butt; stroke-linejoin: miter; stroke-miterlimit: 10; fill: rgb(254,216,101); fill-rule: nonzero; opacity: 1;" transform=" matrix(1 0 0 1 0 0) " stroke-linecap="round" />
</g>
</svg>