<?xml version="1.0" encoding="utf-8"?>
<!-- Generator: Adobe Illustrator 19.2.1, SVG Export Plug-In . SVG Version: 6.00 Build 0)  -->
<svg version="1.1" id="layer" xmlns="http://www.w3.org/2000/svg" xmlns:xlink="http://www.w3.org/1999/xlink" x="0px" y="0px"
	 viewBox="0 0 652 652" style="enable-background:new 0 0 652 652;" xml:space="preserve">
<style type="text/css">
	.st0{fill:#2E4369;}
	.st1{fill:#00B9FF;}
</style>
<path class="st0" d="M621.3,312.5c0-34.9-24.3-59.4-58.3-59.4c-43.3,0-72.4,31.5-72.4,76.5c0,35.1,24.5,59.4,59.1,59.4
	c31.5,0,55-15.2,64.6-39.5h-35c-4.7,7.6-14.5,12.3-26.6,12.3c-18.6,0-30.2-12.3-31.3-29.7h97.8C620.7,325.4,621.3,319.7,621.3,312.5
	z M524.2,308.4c3.1-16,18.7-28.8,37.5-28.8c16.3,0,28.6,11.9,28.6,28.8L524.2,308.4L524.2,308.4z M396.6,385.8l6.3-33.5
	c19.2,3.8,22.1-7,27.1-33l2.4-12.9c7-36.4,21-54.5,61.2-49.6l-6.3,33.5c-19.2-3.8-22.5,10.7-26.8,33.2l-2.4,12.9
	C451.1,373.2,436.6,390.7,396.6,385.8L396.6,385.8z M349.7,385.9l23.7-129.7h31.3l-23.6,129.7H349.7z M170.6,256.2H201l9.9,93.8
	l39.7-93.8h30.1l10.6,94.7l38.3-94.7h30.2l-55,129.7h-34.4l-11.2-89.2l-38,89.2h-33.2L170.6,256.2L170.6,256.2z"/>
<path class="st1" d="M57.4,290.6l-36,34.4h61.2l6.4-15h-31l19.4-19.4l-11.3-19.4h52.6L70.1,385.9h18.2l55-129.7H37.1L57.4,290.6z"/>
</svg>
